<?xml version="1.0" encoding="UTF-8" standalone="no"?>
<!DOCTYPE svg PUBLIC "-//W3C//DTD SVG 1.1//EN"
 "http://www.w3.org/Graphics/SVG/1.1/DTD/svg11.dtd">
<!-- Generated by graphviz version 2.40.1 (20161225.0304)
 -->
<!-- Title: G Pages: 1 -->
<svg width="1185pt" height="326pt"
 viewBox="0.00 0.00 1185.20 326.00" xmlns="http://www.w3.org/2000/svg" xmlns:xlink="http://www.w3.org/1999/xlink">
<g id="graph0" class="graph" transform="scale(1 1) rotate(0) translate(21.6 304.4)">
<title>G</title>
<polygon fill="#111111" stroke="transparent" points="-21.6,21.6 -21.6,-304.4 1163.6,-304.4 1163.6,21.6 -21.6,21.6"/>
<!-- ../actions/abstract.action.ts -->
<g id="node1" class="node">
<title>../actions/abstract.action.ts</title>
<path fill="none" stroke="#cfffac" d="M825.2995,-153.7008C825.2995,-153.7008 659.7005,-153.7008 659.7005,-153.7008 655.6003,-153.7008 651.5,-149.6005 651.5,-145.5003 651.5,-145.5003 651.5,-137.2997 651.5,-137.2997 651.5,-133.1995 655.6003,-129.0992 659.7005,-129.0992 659.7005,-129.0992 825.2995,-129.0992 825.2995,-129.0992 829.3997,-129.0992 833.5,-133.1995 833.5,-137.2997 833.5,-137.2997 833.5,-145.5003 833.5,-145.5003 833.5,-149.6005 829.3997,-153.7008 825.2995,-153.7008"/>
<text text-anchor="middle" x="742.5" y="-137.2" font-family="Arial" font-size="14.00" fill="#cfffac">../actions/abstract.action.ts</text>
</g>
<!-- ../lib/schematics/abstract.collection.ts -->
<g id="node2" class="node">
<title>../lib/schematics/abstract.collection.ts</title>
<path fill="none" stroke="#c6c5fe" d="M857.7995,-44.7008C857.7995,-44.7008 627.2005,-44.7008 627.2005,-44.7008 623.1003,-44.7008 619,-40.6005 619,-36.5003 619,-36.5003 619,-28.2997 619,-28.2997 619,-24.1995 623.1003,-20.0992 627.2005,-20.0992 627.2005,-20.0992 857.7995,-20.0992 857.7995,-20.0992 861.8997,-20.0992 866,-24.1995 866,-28.2997 866,-28.2997 866,-36.5003 866,-36.5003 866,-40.6005 861.8997,-44.7008 857.7995,-44.7008"/>
<text text-anchor="middle" x="742.5" y="-28.2" font-family="Arial" font-size="14.00" fill="#c6c5fe">../lib/schematics/abstract.collection.ts</text>
</g>
<!-- ../lib/schematics/schematic.option.ts -->
<g id="node3" class="node">
<title>../lib/schematics/schematic.option.ts</title>
<path fill="none" stroke="#cfffac" d="M1133.7995,-24.7008C1133.7995,-24.7008 910.2005,-24.7008 910.2005,-24.7008 906.1003,-24.7008 902,-20.6005 902,-16.5003 902,-16.5003 902,-8.2997 902,-8.2997 902,-4.1995 906.1003,-.0992 910.2005,-.0992 910.2005,-.0992 1133.7995,-.0992 1133.7995,-.0992 1137.8997,-.0992 1142,-4.1995 1142,-8.2997 1142,-8.2997 1142,-16.5003 1142,-16.5003 1142,-20.6005 1137.8997,-24.7008 1133.7995,-24.7008"/>
<text text-anchor="middle" x="1022" y="-8.2" font-family="Arial" font-size="14.00" fill="#cfffac">../lib/schematics/schematic.option.ts</text>
</g>
<!-- ../lib/schematics/abstract.collection.ts&#45;&gt;../lib/schematics/schematic.option.ts -->
<g id="edge1" class="edge">
<title>../lib/schematics/abstract.collection.ts&#45;&gt;../lib/schematics/schematic.option.ts</title>
<path fill="none" stroke="#757575" d="M866.3134,-23.5404C874.8143,-22.9321 883.395,-22.3181 891.9274,-21.7075"/>
<polygon fill="#757575" stroke="#757575" points="892.1891,-25.1978 901.9137,-20.9929 891.6894,-18.2157 892.1891,-25.1978"/>
</g>
<!-- ../lib/schematics/nest.collection.ts -->
<g id="node4" class="node">
<title>../lib/schematics/nest.collection.ts</title>
<path fill="none" stroke="#c6c5fe" d="M574.7995,-24.7008C574.7995,-24.7008 368.2005,-24.7008 368.2005,-24.7008 364.1003,-24.7008 360,-20.6005 360,-16.5003 360,-16.5003 360,-8.2997 360,-8.2997 360,-4.1995 364.1003,-.0992 368.2005,-.0992 368.2005,-.0992 574.7995,-.0992 574.7995,-.0992 578.8997,-.0992 583,-4.1995 583,-8.2997 583,-8.2997 583,-16.5003 583,-16.5003 583,-20.6005 578.8997,-24.7008 574.7995,-24.7008"/>
<text text-anchor="middle" x="471.5" y="-8.2" font-family="Arial" font-size="14.00" fill="#c6c5fe">../lib/schematics/nest.collection.ts</text>
</g>
<!-- ../lib/schematics/nest.collection.ts&#45;&gt;../lib/schematics/abstract.collection.ts -->
<g id="edge2" class="edge">
<title>../lib/schematics/nest.collection.ts&#45;&gt;../lib/schematics/abstract.collection.ts</title>
<path fill="none" stroke="#757575" d="M583.2907,-20.6502C591.5831,-21.2622 599.9978,-21.8832 608.4053,-22.5037"/>
<polygon fill="#757575" stroke="#757575" points="608.4178,-26.0141 618.6483,-23.2597 608.933,-19.033 608.4178,-26.0141"/>
</g>
<!-- ../lib/schematics/nest.collection.ts&#45;&gt;../lib/schematics/schematic.option.ts -->
<g id="edge3" class="edge">
<title>../lib/schematics/nest.collection.ts&#45;&gt;../lib/schematics/schematic.option.ts</title>
<path fill="none" stroke="#757575" d="M583.0441,-11.5637C595.179,-11.4965 607.3483,-11.4395 619,-11.4 728.7771,-11.0279 756.2228,-11.0482 866,-11.4 874.3706,-11.4268 882.9937,-11.4618 891.6865,-11.5024"/>
<polygon fill="#757575" stroke="#757575" points="891.895,-15.0034 901.9121,-11.5527 891.9295,-8.0035 891.895,-15.0034"/>
</g>
<!-- ../lib/utils/remaining&#45;flags.ts -->
<g id="node5" class="node">
<title>../lib/utils/remaining&#45;flags.ts</title>
<path fill="none" stroke="#cfffac" d="M555.7995,-282.7008C555.7995,-282.7008 387.2005,-282.7008 387.2005,-282.7008 383.1003,-282.7008 379,-278.6005 379,-274.5003 379,-274.5003 379,-266.2997 379,-266.2997 379,-262.1995 383.1003,-258.0992 387.2005,-258.0992 387.2005,-258.0992 555.7995,-258.0992 555.7995,-258.0992 559.8997,-258.0992 564,-262.1995 564,-266.2997 564,-266.2997 564,-274.5003 564,-274.5003 564,-278.6005 559.8997,-282.7008 555.7995,-282.7008"/>
<text text-anchor="middle" x="471.5" y="-266.2" font-family="Arial" font-size="14.00" fill="#cfffac">../lib/utils/remaining&#45;flags.ts</text>
</g>
<!-- abstract.command.ts -->
<g id="node6" class="node">
<title>abstract.command.ts</title>
<path fill="none" stroke="#c6c5fe" d="M536.2995,-153.7008C536.2995,-153.7008 406.7005,-153.7008 406.7005,-153.7008 402.6003,-153.7008 398.5,-149.6005 398.5,-145.5003 398.5,-145.5003 398.5,-137.2997 398.5,-137.2997 398.5,-133.1995 402.6003,-129.0992 406.7005,-129.0992 406.7005,-129.0992 536.2995,-129.0992 536.2995,-129.0992 540.3997,-129.0992 544.5,-133.1995 544.5,-137.2997 544.5,-137.2997 544.5,-145.5003 544.5,-145.5003 544.5,-149.6005 540.3997,-153.7008 536.2995,-153.7008"/>
<text text-anchor="middle" x="471.5" y="-137.2" font-family="Arial" font-size="14.00" fill="#c6c5fe">abstract.command.ts</text>
</g>
<!-- abstract.command.ts&#45;&gt;../actions/abstract.action.ts -->
<g id="edge4" class="edge">
<title>abstract.command.ts&#45;&gt;../actions/abstract.action.ts</title>
<path fill="none" stroke="#757575" d="M544.8365,-141.4C574.3986,-141.4 609.0007,-141.4 640.9192,-141.4"/>
<polygon fill="#757575" stroke="#757575" points="641.1783,-144.9001 651.1782,-141.4 641.1782,-137.9001 641.1783,-144.9001"/>
</g>
<!-- add.command.ts -->
<g id="node7" class="node">
<title>add.command.ts</title>
<path fill="none" stroke="#c6c5fe" d="M299.7995,-282.7008C299.7995,-282.7008 196.2005,-282.7008 196.2005,-282.7008 192.1003,-282.7008 188,-278.6005 188,-274.5003 188,-274.5003 188,-266.2997 188,-266.2997 188,-262.1995 192.1003,-258.0992 196.2005,-258.0992 196.2005,-258.0992 299.7995,-258.0992 299.7995,-258.0992 303.8997,-258.0992 308,-262.1995 308,-266.2997 308,-266.2997 308,-274.5003 308,-274.5003 308,-278.6005 303.8997,-282.7008 299.7995,-282.7008"/>
<text text-anchor="middle" x="248" y="-266.2" font-family="Arial" font-size="14.00" fill="#c6c5fe">add.command.ts</text>
</g>
<!-- add.command.ts&#45;&gt;../lib/utils/remaining&#45;flags.ts -->
<g id="edge5" class="edge">
<title>add.command.ts&#45;&gt;../lib/utils/remaining&#45;flags.ts</title>
<path fill="none" stroke="#757575" d="M308.1879,-270.4C326.8544,-270.4 347.9793,-270.4 368.6918,-270.4"/>
<polygon fill="#757575" stroke="#757575" points="368.8141,-273.9001 378.8141,-270.4 368.814,-266.9001 368.8141,-273.9001"/>
</g>
<!-- add.command.ts&#45;&gt;abstract.command.ts -->
<g id="edge6" class="edge">
<title>add.command.ts&#45;&gt;abstract.command.ts</title>
<path fill="none" stroke="#757575" d="M299.6042,-258.0899C307.946,-255.3591 316.3488,-252.1402 324,-248.4 372.9388,-224.4768 422.7735,-184.3286 450.159,-160.6043"/>
<polygon fill="#757575" stroke="#757575" points="452.7011,-163.0302 457.9114,-153.8051 448.0854,-157.7675 452.7011,-163.0302"/>
</g>
<!-- command.input.ts -->
<g id="node8" class="node">
<title>command.input.ts</title>
<path fill="none" stroke="#cfffac" d="M526.7995,-110.7008C526.7995,-110.7008 416.2005,-110.7008 416.2005,-110.7008 412.1003,-110.7008 408,-106.6005 408,-102.5003 408,-102.5003 408,-94.2997 408,-94.2997 408,-90.1995 412.1003,-86.0992 416.2005,-86.0992 416.2005,-86.0992 526.7995,-86.0992 526.7995,-86.0992 530.8997,-86.0992 535,-90.1995 535,-94.2997 535,-94.2997 535,-102.5003 535,-102.5003 535,-106.6005 530.8997,-110.7008 526.7995,-110.7008"/>
<text text-anchor="middle" x="471.5" y="-94.2" font-family="Arial" font-size="14.00" fill="#cfffac">command.input.ts</text>
</g>
<!-- add.command.ts&#45;&gt;command.input.ts -->
<g id="edge7" class="edge">
<title>add.command.ts&#45;&gt;command.input.ts</title>
<path fill="none" stroke="#757575" d="M308.1622,-259.5151C314.0128,-256.6237 319.4523,-252.9824 324,-248.4 365.628,-206.4542 316.588,-160.4967 360,-120.4 370.4387,-110.7585 383.8287,-104.8006 397.6832,-101.2168"/>
<polygon fill="#757575" stroke="#757575" points="398.7926,-104.5573 407.818,-99.0082 397.302,-97.7178 398.7926,-104.5573"/>
</g>
<!-- build.command.ts -->
<g id="node9" class="node">
<title>build.command.ts</title>
<path fill="none" stroke="#c6c5fe" d="M302.7995,-110.7008C302.7995,-110.7008 193.2005,-110.7008 193.2005,-110.7008 189.1003,-110.7008 185,-106.6005 185,-102.5003 185,-102.5003 185,-94.2997 185,-94.2997 185,-90.1995 189.1003,-86.0992 193.2005,-86.0992 193.2005,-86.0992 302.7995,-86.0992 302.7995,-86.0992 306.8997,-86.0992 311,-90.1995 311,-94.2997 311,-94.2997 311,-102.5003 311,-102.5003 311,-106.6005 306.8997,-110.7008 302.7995,-110.7008"/>
<text text-anchor="middle" x="248" y="-94.2" font-family="Arial" font-size="14.00" fill="#c6c5fe">build.command.ts</text>
</g>
<!-- build.command.ts&#45;&gt;abstract.command.ts -->
<g id="edge8" class="edge">
<title>build.command.ts&#45;&gt;abstract.command.ts</title>
<path fill="none" stroke="#757575" d="M311.15,-110.5497C337.9371,-115.7033 369.3513,-121.7472 397.2414,-127.1131"/>
<polygon fill="#757575" stroke="#757575" points="396.861,-130.604 407.3422,-129.0564 398.1836,-123.7301 396.861,-130.604"/>
</g>
<!-- build.command.ts&#45;&gt;command.input.ts -->
<g id="edge9" class="edge">
<title>build.command.ts&#45;&gt;command.input.ts</title>
<path fill="none" stroke="#757575" d="M311.15,-98.4C338.052,-98.4 369.621,-98.4 397.6003,-98.4"/>
<polygon fill="#757575" stroke="#757575" points="397.7308,-101.9001 407.7308,-98.4 397.7308,-94.9001 397.7308,-101.9001"/>
</g>
<!-- command.loader.ts -->
<g id="node10" class="node">
<title>command.loader.ts</title>
<path fill="none" stroke="#c6c5fe" d="M127.7995,-153.7008C127.7995,-153.7008 8.2005,-153.7008 8.2005,-153.7008 4.1003,-153.7008 0,-149.6005 0,-145.5003 0,-145.5003 0,-137.2997 0,-137.2997 0,-133.1995 4.1003,-129.0992 8.2005,-129.0992 8.2005,-129.0992 127.7995,-129.0992 127.7995,-129.0992 131.8997,-129.0992 136,-133.1995 136,-137.2997 136,-137.2997 136,-145.5003 136,-145.5003 136,-149.6005 131.8997,-153.7008 127.7995,-153.7008"/>
<text text-anchor="middle" x="68" y="-137.2" font-family="Arial" font-size="14.00" fill="#c6c5fe">command.loader.ts</text>
</g>
<!-- command.loader.ts&#45;&gt;add.command.ts -->
<g id="edge10" class="edge">
<title>command.loader.ts&#45;&gt;add.command.ts</title>
<path fill="none" stroke="#757575" d="M76.7589,-154.017C92.9536,-176.3965 129.8011,-223.0649 172,-248.4 175.5772,-250.5476 179.3754,-252.4954 183.2919,-254.2604"/>
<polygon fill="#757575" stroke="#757575" points="182.0154,-257.5196 192.5967,-258.0552 184.6589,-251.0379 182.0154,-257.5196"/>
</g>
<!-- command.loader.ts&#45;&gt;build.command.ts -->
<g id="edge11" class="edge">
<title>command.loader.ts&#45;&gt;build.command.ts</title>
<path fill="none" stroke="#757575" d="M119.5808,-129.0779C140.4813,-124.085 164.785,-118.2791 186.5901,-113.0701"/>
<polygon fill="#757575" stroke="#757575" points="187.4986,-116.4517 196.4117,-110.7239 185.8721,-109.6432 187.4986,-116.4517"/>
</g>
<!-- generate.command.ts -->
<g id="node11" class="node">
<title>generate.command.ts</title>
<path fill="none" stroke="#c6c5fe" d="M315.7995,-24.7008C315.7995,-24.7008 180.2005,-24.7008 180.2005,-24.7008 176.1003,-24.7008 172,-20.6005 172,-16.5003 172,-16.5003 172,-8.2997 172,-8.2997 172,-4.1995 176.1003,-.0992 180.2005,-.0992 180.2005,-.0992 315.7995,-.0992 315.7995,-.0992 319.8997,-.0992 324,-4.1995 324,-8.2997 324,-8.2997 324,-16.5003 324,-16.5003 324,-20.6005 319.8997,-24.7008 315.7995,-24.7008"/>
<text text-anchor="middle" x="248" y="-8.2" font-family="Arial" font-size="14.00" fill="#c6c5fe">generate.command.ts</text>
</g>
<!-- command.loader.ts&#45;&gt;generate.command.ts -->
<g id="edge12" class="edge">
<title>command.loader.ts&#45;&gt;generate.command.ts</title>
<path fill="none" stroke="#757575" d="M76.7589,-128.783C92.9536,-106.4035 129.8011,-59.7351 172,-34.4 175.5772,-32.2524 179.3754,-30.3046 183.2919,-28.5396"/>
<polygon fill="#757575" stroke="#757575" points="184.6589,-31.7621 192.5967,-24.7448 182.0154,-25.2804 184.6589,-31.7621"/>
</g>
<!-- info.command.ts -->
<g id="node12" class="node">
<title>info.command.ts</title>
<path fill="none" stroke="#c6c5fe" d="M299.2995,-239.7008C299.2995,-239.7008 196.7005,-239.7008 196.7005,-239.7008 192.6003,-239.7008 188.5,-235.6005 188.5,-231.5003 188.5,-231.5003 188.5,-223.2997 188.5,-223.2997 188.5,-219.1995 192.6003,-215.0992 196.7005,-215.0992 196.7005,-215.0992 299.2995,-215.0992 299.2995,-215.0992 303.3997,-215.0992 307.5,-219.1995 307.5,-223.2997 307.5,-223.2997 307.5,-231.5003 307.5,-231.5003 307.5,-235.6005 303.3997,-239.7008 299.2995,-239.7008"/>
<text text-anchor="middle" x="248" y="-223.2" font-family="Arial" font-size="14.00" fill="#c6c5fe">info.command.ts</text>
</g>
<!-- command.loader.ts&#45;&gt;info.command.ts -->
<g id="edge13" class="edge">
<title>command.loader.ts&#45;&gt;info.command.ts</title>
<path fill="none" stroke="#757575" d="M84.8731,-153.7779C104.8199,-167.9264 139.4311,-190.9838 172,-205.4 177.3108,-207.7508 182.9405,-209.9251 188.6388,-211.9172"/>
<polygon fill="#757575" stroke="#757575" points="187.6561,-215.2786 198.2494,-215.0968 189.8548,-208.6329 187.6561,-215.2786"/>
</g>
<!-- new.command.ts -->
<g id="node13" class="node">
<title>new.command.ts</title>
<path fill="none" stroke="#c6c5fe" d="M300.7995,-67.7008C300.7995,-67.7008 195.2005,-67.7008 195.2005,-67.7008 191.1003,-67.7008 187,-63.6005 187,-59.5003 187,-59.5003 187,-51.2997 187,-51.2997 187,-47.1995 191.1003,-43.0992 195.2005,-43.0992 195.2005,-43.0992 300.7995,-43.0992 300.7995,-43.0992 304.8997,-43.0992 309,-47.1995 309,-51.2997 309,-51.2997 309,-59.5003 309,-59.5003 309,-63.6005 304.8997,-67.7008 300.7995,-67.7008"/>
<text text-anchor="middle" x="248" y="-51.2" font-family="Arial" font-size="14.00" fill="#c6c5fe">new.command.ts</text>
</g>
<!-- command.loader.ts&#45;&gt;new.command.ts -->
<g id="edge14" class="edge">
<title>command.loader.ts&#45;&gt;new.command.ts</title>
<path fill="none" stroke="#757575" d="M84.8731,-129.0221C104.8199,-114.8736 139.4311,-91.8162 172,-77.4 177.3108,-75.0492 182.9405,-72.8749 188.6388,-70.8828"/>
<polygon fill="#757575" stroke="#757575" points="189.8548,-74.1671 198.2494,-67.7032 187.6561,-67.5214 189.8548,-74.1671"/>
</g>
<!-- start.command.ts -->
<g id="node14" class="node">
<title>start.command.ts</title>
<path fill="none" stroke="#c6c5fe" d="M301.7995,-196.7008C301.7995,-196.7008 194.2005,-196.7008 194.2005,-196.7008 190.1003,-196.7008 186,-192.6005 186,-188.5003 186,-188.5003 186,-180.2997 186,-180.2997 186,-176.1995 190.1003,-172.0992 194.2005,-172.0992 194.2005,-172.0992 301.7995,-172.0992 301.7995,-172.0992 305.8997,-172.0992 310,-176.1995 310,-180.2997 310,-180.2997 310,-188.5003 310,-188.5003 310,-192.6005 305.8997,-196.7008 301.7995,-196.7008"/>
<text text-anchor="middle" x="248" y="-180.2" font-family="Arial" font-size="14.00" fill="#c6c5fe">start.command.ts</text>
</g>
<!-- command.loader.ts&#45;&gt;start.command.ts -->
<g id="edge15" class="edge">
<title>command.loader.ts&#45;&gt;start.command.ts</title>
<path fill="none" stroke="#757575" d="M119.5808,-153.7221C140.4813,-158.715 164.785,-164.5209 186.5901,-169.7299"/>
<polygon fill="#757575" stroke="#757575" points="185.8721,-173.1568 196.4117,-172.0761 187.4986,-166.3483 185.8721,-173.1568"/>
</g>
<!-- update.command.ts -->
<g id="node15" class="node">
<title>update.command.ts</title>
<path fill="none" stroke="#c6c5fe" d="M309.2995,-153.7008C309.2995,-153.7008 186.7005,-153.7008 186.7005,-153.7008 182.6003,-153.7008 178.5,-149.6005 178.5,-145.5003 178.5,-145.5003 178.5,-137.2997 178.5,-137.2997 178.5,-133.1995 182.6003,-129.0992 186.7005,-129.0992 186.7005,-129.0992 309.2995,-129.0992 309.2995,-129.0992 313.3997,-129.0992 317.5,-133.1995 317.5,-137.2997 317.5,-137.2997 317.5,-145.5003 317.5,-145.5003 317.5,-149.6005 313.3997,-153.7008 309.2995,-153.7008"/>
<text text-anchor="middle" x="248" y="-137.2" font-family="Arial" font-size="14.00" fill="#c6c5fe">update.command.ts</text>
</g>
<!-- command.loader.ts&#45;&gt;update.command.ts -->
<g id="edge16" class="edge">
<title>command.loader.ts&#45;&gt;update.command.ts</title>
<path fill="none" stroke="#757575" d="M136.0503,-141.4C146.5371,-141.4 157.4474,-141.4 168.1631,-141.4"/>
<polygon fill="#757575" stroke="#757575" points="168.357,-144.9001 178.357,-141.4 168.357,-137.9001 168.357,-144.9001"/>
</g>
<!-- generate.command.ts&#45;&gt;../lib/schematics/nest.collection.ts -->
<g id="edge17" class="edge">
<title>generate.command.ts&#45;&gt;../lib/schematics/nest.collection.ts</title>
<path fill="none" stroke="#757575" d="M324.2909,-12.4C332.562,-12.4 341.1223,-12.4 349.7628,-12.4"/>
<polygon fill="#757575" stroke="#757575" points="349.9304,-15.9001 359.9303,-12.4 349.9303,-8.9001 349.9304,-15.9001"/>
</g>
<!-- generate.command.ts&#45;&gt;abstract.command.ts -->
<g id="edge18" class="edge">
<title>generate.command.ts&#45;&gt;abstract.command.ts</title>
<path fill="none" stroke="#757575" d="M309.4894,-24.7888C314.741,-27.4047 319.6855,-30.5701 324,-34.4 354.6817,-61.6359 328.1634,-93.5236 360,-119.4 368.3817,-126.2125 378.2772,-131.1175 388.6559,-134.6192"/>
<polygon fill="#757575" stroke="#757575" points="387.7123,-137.9899 398.2936,-137.455 389.6883,-131.2745 387.7123,-137.9899"/>
</g>
<!-- generate.command.ts&#45;&gt;command.input.ts -->
<g id="edge19" class="edge">
<title>generate.command.ts&#45;&gt;command.input.ts</title>
<path fill="none" stroke="#757575" d="M294.1187,-24.727C304.0511,-27.6659 314.4362,-30.9568 324,-34.4 363.3406,-48.5636 407.1415,-68.0635 436.7147,-81.8059"/>
<polygon fill="#757575" stroke="#757575" points="435.2516,-84.9855 445.7927,-86.0514 438.217,-78.6447 435.2516,-84.9855"/>
</g>
<!-- info.command.ts&#45;&gt;abstract.command.ts -->
<g id="edge20" class="edge">
<title>info.command.ts&#45;&gt;abstract.command.ts</title>
<path fill="none" stroke="#757575" d="M294.1187,-215.073C304.0511,-212.1341 314.4362,-208.8432 324,-205.4 363.3406,-191.2364 407.1415,-171.7365 436.7147,-157.9941"/>
<polygon fill="#757575" stroke="#757575" points="438.217,-161.1553 445.7927,-153.7486 435.2516,-154.8145 438.217,-161.1553"/>
</g>
<!-- new.command.ts&#45;&gt;abstract.command.ts -->
<g id="edge21" class="edge">
<title>new.command.ts&#45;&gt;abstract.command.ts</title>
<path fill="none" stroke="#757575" d="M304.8212,-67.8337C311.5498,-70.4538 318.1096,-73.608 324,-77.4 344.6723,-90.7079 338.7687,-107.0033 360,-119.4 368.845,-124.5645 378.6874,-128.5391 388.7592,-131.594"/>
<polygon fill="#757575" stroke="#757575" points="387.8916,-134.9852 398.4609,-134.25 389.74,-128.2337 387.8916,-134.9852"/>
</g>
<!-- new.command.ts&#45;&gt;command.input.ts -->
<g id="edge22" class="edge">
<title>new.command.ts&#45;&gt;command.input.ts</title>
<path fill="none" stroke="#757575" d="M309.0724,-67.1499C336.4731,-72.4217 369.0311,-78.6856 397.7774,-84.2162"/>
<polygon fill="#757575" stroke="#757575" points="397.2905,-87.6867 407.7717,-86.1391 398.613,-80.8127 397.2905,-87.6867"/>
</g>
<!-- start.command.ts&#45;&gt;abstract.command.ts -->
<g id="edge23" class="edge">
<title>start.command.ts&#45;&gt;abstract.command.ts</title>
<path fill="none" stroke="#757575" d="M310.2572,-172.4221C337.2938,-167.2204 369.174,-161.0869 397.4185,-155.6528"/>
<polygon fill="#757575" stroke="#757575" points="398.0847,-159.0889 407.2433,-153.7626 396.7621,-152.215 398.0847,-159.0889"/>
</g>
<!-- start.command.ts&#45;&gt;command.input.ts -->
<g id="edge24" class="edge">
<title>start.command.ts&#45;&gt;command.input.ts</title>
<path fill="none" stroke="#757575" d="M304.8212,-171.9663C311.5498,-169.3462 318.1096,-166.192 324,-162.4 344.6723,-149.0921 338.7687,-132.7967 360,-120.4 371.4734,-113.7008 384.6252,-109.0038 397.7787,-105.7191"/>
<polygon fill="#757575" stroke="#757575" points="398.8164,-109.0735 407.8098,-103.4728 397.2867,-102.2426 398.8164,-109.0735"/>
</g>
<!-- update.command.ts&#45;&gt;abstract.command.ts -->
<g id="edge25" class="edge">
<title>update.command.ts&#45;&gt;abstract.command.ts</title>
<path fill="none" stroke="#757575" d="M317.7975,-141.4C340.1116,-141.4 365.0363,-141.4 388.2115,-141.4"/>
<polygon fill="#757575" stroke="#757575" points="388.371,-144.9001 398.3709,-141.4 388.3709,-137.9001 388.371,-144.9001"/>
</g>
<!-- update.command.ts&#45;&gt;command.input.ts -->
<g id="edge26" class="edge">
<title>update.command.ts&#45;&gt;command.input.ts</title>
<path fill="none" stroke="#757575" d="M312.0461,-129.0779C338.814,-123.928 370.0773,-117.9131 397.7948,-112.5804"/>
<polygon fill="#757575" stroke="#757575" points="398.6726,-115.9758 407.8312,-110.6495 397.35,-109.1019 398.6726,-115.9758"/>
</g>
</g>
</svg>
